<svg width="284" height="74" viewBox="0 0 284 74" fill="none" xmlns="http://www.w3.org/2000/svg">
<path d="M41.228 49.2922C41.2268 50.3564 40.7003 51.377 39.7643 52.1294C38.8284 52.8822 37.5599 53.3056 36.2366 53.307H19.7619C19.3617 53.3131 19.004 53.509 18.8511 53.8064C18.6981 54.1038 18.7784 54.4456 19.0558 54.6774L19.645 55.1513C20.0126 55.4645 20.0051 55.9561 19.6278 56.2616C19.2505 56.5674 18.6392 56.5771 18.2473 56.2834L12.3512 53.0718C12.1644 52.9232 12.0595 52.7206 12.0595 52.5095C12.0595 52.2985 12.1644 52.0962 12.3512 51.9476L18.2473 48.7319C18.4471 48.577 18.7174 48.4943 18.9944 48.5048C19.2719 48.5148 19.5317 48.6163 19.7131 48.7854C20.0298 49.1386 19.9701 49.6262 19.5731 49.9226L19.0609 50.3353C18.7959 50.5688 18.7228 50.9046 18.8728 51.197C19.0228 51.4893 19.3692 51.6856 19.762 51.701H36.2366C37.031 51.701 37.7927 51.4473 38.3542 50.9957C38.9158 50.5437 39.2317 49.931 39.2317 49.2922C39.2317 49.2922 39.2317 38.6895 39.2317 38.0506C39.2317 37.4118 38.9872 36.8566 38.3542 36.3475C37.7213 35.8384 37.031 35.6418 36.2366 35.6418C35.4423 35.6418 10.7691 35.7187 10.7691 35.7187V34.2345C10.7691 34.2345 34.9134 34.0351 36.2366 34.0361C37.5599 34.0371 38.7097 34.3651 39.7644 35.2134C40.819 36.0616 41.2268 36.9864 41.2281 38.0506L41.228 49.2922Z" fill="#FF5701" stroke="#FF5701" stroke-width="2"/>
<path d="M1.69333 20.7163C1.69459 19.6711 2.22323 18.6688 3.16309 17.9298C4.1029 17.1905 5.37664 16.7747 6.70538 16.7733H15.7276V18.3506H6.70538C5.90779 18.3506 5.14293 18.5998 4.57904 19.0433C4.01515 19.4873 3.69797 20.0889 3.69797 20.7163V31.7568C3.69797 32.3842 4.01515 32.9858 4.57904 33.4294C5.14293 33.873 5.90777 34.1225 6.70538 34.1225L9.98737 34.2345V35.6995H6.70541C5.37668 35.6985 4.10294 35.2826 3.16312 34.5433C2.22331 33.804 1.69465 32.802 1.69336 31.7568L1.69333 20.7163Z" fill="#FF5701" stroke="#FF5701" stroke-width="2"/>
<path d="M8.54623 23.862C8.45949 23.976 8.64981 23.4507 8.83776 23.302C9.0258 23.1534 9.28153 23.07 9.54805 23.0703L20.9444 23.0644L20.9475 18.3443L6.88663 18.3701C6.53971 18.3583 6.2251 18.206 6.05565 17.9672C5.88649 17.7285 5.88662 17.4376 6.0563 17.199C6.22577 16.9604 6.54059 16.8082 6.8875 16.7969L21.9439 16.7733C22.2011 16.776 22.447 16.8566 22.6304 16.9985C22.814 17.1402 22.9213 17.3321 22.9297 17.5345L22.9286 19.1078L23.9325 19.1062C24.1989 19.1052 24.4551 19.1877 24.6438 19.3357C24.8326 19.4837 24.9384 19.685 24.9381 19.8948L33.038 19.8949C33.3851 19.9066 33.6995 20.059 33.8688 20.2978C34.0379 20.5366 34.0378 20.8274 33.8683 21.066C33.6987 21.3046 33.3838 21.4568 33.0369 21.4682L24.9371 21.4681C24.9384 21.6783 24.8327 21.8802 24.6437 22.0288C24.456 22.1768 24.2012 22.2599 23.9355 22.2597L22.9316 22.2614L22.9305 23.8346C22.9307 24.0426 22.8265 24.2421 22.6403 24.3897C22.4543 24.5373 22.2016 24.6209 21.9375 24.6224L9.55263 24.6502C9.28612 24.6514 9.03014 24.5688 8.84127 24.4206C8.65253 24.2726 8.54687 23.8618 8.54687 23.8618L8.54623 23.862Z" fill="#FF5701" stroke="#FF5701" stroke-width="2"/>
<mask id="path-4-inside-1_103_81" fill="white">
<rect x="36.4707" y="16.7733" width="5.94672" height="13.7266" rx="1.91997"/>
</mask>
<rect x="36.4707" y="16.7733" width="5.94672" height="13.7266" rx="1.91997" stroke="#FF5701" stroke-width="5.94672" mask="url(#path-4-inside-1_103_81)"/>
<mask id="path-5-inside-2_103_81" fill="white">
<rect x="2.64479" y="39.2352" width="5.94672" height="17.2623" rx="1.91997"/>
</mask>
<rect x="2.64479" y="39.2352" width="5.94672" height="17.2623" rx="1.91997" stroke="#FF5701" stroke-width="5.94672" mask="url(#path-5-inside-2_103_81)"/>
<path d="M75.656 33.16C78.632 33.16 80.904 33.848 82.472 35.224C84.04 36.568 84.824 38.568 84.824 41.224V47.08C84.824 49.8 84.056 51.864 82.52 53.272C81.016 54.648 78.776 55.304 75.8 55.24L61.112 55V49.768H77.864C78.376 49.768 78.632 49.512 78.632 49V39.4C78.632 38.888 78.376 38.632 77.864 38.632H69.32C66.344 38.632 64.088 37.976 62.552 36.664C61.048 35.352 60.296 33.336 60.296 30.616V24.952C60.296 22.296 61.08 20.248 62.648 18.808C64.216 17.336 66.488 16.632 69.464 16.696L83.432 16.936V22.168H67.256C66.744 22.168 66.488 22.44 66.488 22.984V32.392C66.488 32.904 66.744 33.16 67.256 33.16H75.656ZM99.8739 55V41.32C98.4659 41.064 97.4259 40.52 96.7539 39.688C96.0819 38.824 95.4099 37.528 94.7379 35.8L87.5379 16.936H93.9219L101.026 35.656C101.154 36.072 101.41 36.28 101.794 36.28H104.338C104.722 36.28 104.978 36.072 105.106 35.656L112.258 16.936H118.306L110.914 35.848C110.434 37.064 109.986 38.056 109.57 38.824C109.186 39.592 108.706 40.184 108.13 40.6C107.586 40.984 106.834 41.24 105.874 41.368V55H99.8739ZM136.594 33.16C139.57 33.16 141.842 33.848 143.41 35.224C144.978 36.568 145.762 38.568 145.762 41.224V47.08C145.762 49.8 144.994 51.864 143.458 53.272C141.954 54.648 139.714 55.304 136.738 55.24L122.05 55V49.768H138.802C139.314 49.768 139.57 49.512 139.57 49V39.4C139.57 38.888 139.314 38.632 138.802 38.632H130.258C127.282 38.632 125.026 37.976 123.49 36.664C121.986 35.352 121.234 33.336 121.234 30.616V24.952C121.234 22.296 122.018 20.248 123.586 18.808C125.154 17.336 127.426 16.632 130.402 16.696L144.37 16.936V22.168H128.194C127.682 22.168 127.426 22.44 127.426 22.984V32.392C127.426 32.904 127.682 33.16 128.194 33.16H136.594ZM157.451 55V22.168H148.187V16.936H172.715V22.168H163.499V55H157.451ZM177.294 55V16.936H198.846V22.168H183.342V33.112H197.79V38.296H183.342V49.768H199.182V55H177.294ZM233.023 16.936C234.463 16.936 235.471 17.256 236.047 17.896C236.655 18.504 236.959 19.496 236.959 20.872V55H231.151V26.344L222.367 43.336H218.815L210.319 26.536V55H204.991V16.936H208.255C209.311 16.936 210.079 17.112 210.559 17.464C211.039 17.784 211.487 18.392 211.903 19.288L220.975 36.664L231.199 16.936H233.023ZM245.655 55V16.936H251.703V55H245.655ZM281.611 55H268.699C265.787 55 263.627 54.392 262.219 53.176C260.811 51.928 260.107 49.992 260.107 47.368V24.616C260.107 21.96 260.811 20.024 262.219 18.808C263.627 17.56 265.787 16.936 268.699 16.936H281.611V22.36H266.923C266.475 22.36 266.251 22.584 266.251 23.032V48.952C266.251 49.368 266.475 49.576 266.923 49.576H281.611V55Z" fill="#FF5701"/>
</svg>
