<svg width="109" height="109" viewBox="0 0 109 109" fill="none" xmlns="http://www.w3.org/2000/svg">
<rect width="109" height="109" rx="6.27338" fill="url(#paint0_linear_102_76)"/>
<path d="M89.0433 77.2364C89.041 79.1482 88.0953 80.9816 86.4139 82.3332C84.7326 83.6855 82.4539 84.4461 80.0768 84.4486H50.4819C49.7629 84.4594 49.1204 84.8114 48.8457 85.3457C48.5709 85.8799 48.7151 86.4939 49.2135 86.9104L50.2718 87.7616C50.9323 88.3242 50.9188 89.2074 50.241 89.7561C49.5632 90.3055 48.4651 90.323 47.7611 89.7954L37.1693 84.026C36.8338 83.7591 36.6454 83.3951 36.6454 83.016C36.6454 82.6369 36.8338 82.2735 37.1693 82.0067L47.7611 76.23C48.1199 75.9517 48.6055 75.8032 49.1032 75.8219C49.6016 75.84 50.0684 76.0223 50.3942 76.326C50.9631 76.9605 50.8558 77.8364 50.1427 78.3689L49.2225 79.1102C48.7466 79.5298 48.6153 80.1329 48.8848 80.6581C49.1542 81.1833 49.7764 81.5359 50.482 81.5636H80.0768C81.5037 81.5636 82.872 81.1079 83.8808 80.2965C84.8896 79.4846 85.4571 78.384 85.4571 77.2364C85.4571 77.2364 85.4571 58.1899 85.4571 57.0423C85.4571 55.8947 85.0179 54.8973 83.8808 53.9828C82.7438 53.0683 81.5037 52.7151 80.0768 52.7151C78.6499 52.7151 34.3273 52.8532 34.3273 52.8532V50.1871C34.3273 50.1871 77.6997 49.8289 80.0768 49.8307C82.4539 49.8325 84.5194 50.4217 86.414 51.9455C88.3086 53.4692 89.041 55.1304 89.0433 57.0423L89.0433 77.2364Z" fill="white" stroke="white" stroke-width="3"/>
<path d="M18.8201 25.9034C18.8224 24.0257 19.7721 22.2252 21.4604 20.8977C23.1487 19.5697 25.4368 18.8226 27.8237 18.8202H44.0311V21.6536H27.8237C26.3909 21.6536 25.0169 22.1012 24.004 22.898C22.991 23.6955 22.4212 24.7763 22.4212 25.9034V45.7362C22.4212 46.8633 22.991 47.9441 24.004 48.7409C25.0169 49.5378 26.3909 49.986 27.8237 49.986L33.7194 50.1871V52.8188H27.8238C25.4368 52.817 23.1487 52.07 21.4605 50.7419C19.7722 49.4138 18.8225 47.6139 18.8202 45.7362L18.8201 25.9034Z" fill="white" stroke="white" stroke-width="3"/>
<path d="M31.1306 31.5543C30.9748 31.759 31.3167 30.8153 31.6543 30.5481C31.9921 30.2812 32.4515 30.1315 32.9303 30.132L53.4025 30.1213L53.408 21.6423L28.1494 21.6886C27.5262 21.6674 26.961 21.3938 26.6566 20.9649C26.3527 20.5361 26.3529 20.0136 26.6578 19.5849C26.9622 19.1563 27.5277 18.8829 28.1509 18.8626L55.1981 18.8202C55.6601 18.825 56.1017 18.9699 56.4313 19.2248C56.761 19.4792 56.9537 19.824 56.9689 20.1876L56.9669 23.0138L58.7702 23.0109C59.2488 23.0092 59.709 23.1573 60.0481 23.4232C60.3872 23.6892 60.5774 24.0507 60.5768 24.4276L75.1272 24.4278C75.7508 24.4488 76.3156 24.7226 76.6197 25.1516C76.9235 25.5804 76.9233 26.1029 76.6189 26.5315C76.3141 26.9602 75.7485 27.2336 75.1253 27.254L60.5749 27.2538C60.5773 27.6315 60.3875 27.9941 60.0479 28.261C59.7107 28.5269 59.2529 28.6763 58.7756 28.6759L56.9723 28.6788L56.9704 31.505C56.9706 31.8786 56.7834 32.2371 56.4489 32.5021C56.115 32.7673 55.661 32.9174 55.1865 32.9202L32.9385 32.9701C32.4598 32.9722 31.9999 32.8239 31.6606 32.5577C31.3216 32.2918 31.1318 31.5538 31.1318 31.5538L31.1306 31.5543Z" fill="white" stroke="white" stroke-width="3"/>
<mask id="path-5-inside-1_102_76" fill="white">
<rect x="80.4973" y="18.8202" width="10.6826" height="24.6583" rx="3.449"/>
</mask>
<rect x="80.4973" y="18.8202" width="10.6826" height="24.6583" rx="3.449" stroke="white" stroke-width="10.6826" mask="url(#path-5-inside-1_102_76)"/>
<mask id="path-6-inside-2_102_76" fill="white">
<rect x="20.5293" y="59.17" width="10.6826" height="31.0097" rx="3.449"/>
</mask>
<rect x="20.5293" y="59.17" width="10.6826" height="31.0097" rx="3.449" stroke="white" stroke-width="10.6826" mask="url(#path-6-inside-2_102_76)"/>
<defs>
<linearGradient id="paint0_linear_102_76" x1="0" y1="0" x2="109.787" y2="108.202" gradientUnits="userSpaceOnUse">
<stop stop-color="#FF7D00"/>
<stop offset="0.484375" stop-color="#FF2E00"/>
<stop offset="1" stop-color="#DA0000"/>
</linearGradient>
</defs>
</svg>
